<?xml version="1.0" encoding="UTF-8"?>
<!DOCTYPE svg PUBLIC "-//W3C//DTD SVG 1.1//EN" "http://www.w3.org/Graphics/SVG/1.1/DTD/svg11.dtd">
<!-- Creator: CorelDRAW X8 -->
<svg xmlns="http://www.w3.org/2000/svg" xml:space="preserve" width="46.2702mm" height="20.1506mm" version="1.1" style="shape-rendering:geometricPrecision; text-rendering:geometricPrecision; image-rendering:optimizeQuality; fill-rule:evenodd; clip-rule:evenodd"
viewBox="0 0 4627 2015"
 xmlns:xlink="http://www.w3.org/1999/xlink">
 <defs>
  <style type="text/css">
   <![CDATA[
    .fil1 {fill:#000001}
    .fil8 {fill:#09090A}
    .fil6 {fill:#585758}
    .fil7 {fill:#5C5B5C}
    .fil12 {fill:#737274}
    .fil10 {fill:#797676}
    .fil4 {fill:#807F80}
    .fil2 {fill:#EC1E25}
    .fil0 {fill:#ED1C24}
    .fil5 {fill:#ED1F25}
    .fil3 {fill:#F1634D}
    .fil9 {fill:#F9B29D}
    .fil11 {fill:#FABCAB}
   ]]>
  </style>
 </defs>
 <g id="Camada_x0020_1">
  <metadata id="CorelCorpID_0Corel-Layer"/>
  <g id="_2239289014400">
   <path class="fil0" d="M3838 945c25,-6 51,-20 75,-31 7,-3 12,-5 18,-8l130 -58c19,-8 36,-17 54,-26l53 -27c77,-39 113,-60 190,-105 38,-22 85,-54 118,-82l30 -24c31,-24 62,-57 84,-89 4,-6 8,-12 11,-17 6,-10 13,-26 17,-37 34,-93 -37,-155 -106,-198 -12,-8 -22,-13 -35,-20 -13,-6 -24,-10 -37,-16 -13,-6 -24,-10 -37,-15 -14,-6 -27,-9 -40,-15 -25,-10 -55,-18 -82,-25 -27,-8 -58,-16 -85,-22 -104,-21 -209,-43 -317,-56l-311 -37c-11,-1 -17,-2 -26,-2l-148 -12c-9,-2 -16,0 -25,-1 -22,-3 -52,-3 -74,-6l-350 -16c26,9 54,14 79,23 57,19 115,37 169,63 26,12 54,22 79,38l64 35c5,2 6,3 10,5l62 39c40,28 79,56 116,87l24 22c5,5 9,9 14,14l15 13c22,19 49,53 69,76 4,4 4,4 7,8l87 129c4,8 7,12 11,20 28,53 49,108 64,167 12,48 21,103 21,154 0,10 0,17 1,27 3,12 -2,19 1,25z"/>
   <path class="fil0" d="M363 1700c5,3 3,71 2,77l-155 1 0 127 -102 0 0 -350 268 -1c3,4 2,-5 3,7l-1 71 -168 0 0 67 153 1zm348 205l1 -30 -1 -215 82 0 0 35c14,-1 11,-20 38,-31 17,-6 44,-6 62,-1 22,6 26,16 32,39 5,19 6,40 6,64l-77 0c0,-20 0,-38 -13,-45 -11,-6 -30,-5 -40,17 -8,19 -4,89 -4,117 12,0 68,-15 84,-18l83 -21 0 80c0,2 0,5 0,6 1,4 1,3 2,5l0 -91 0 -156 82 0 0 44 7 0c1,-18 22,-33 37,-39 20,-7 45,-7 67,-3 56,11 62,39 62,91 19,0 41,-12 61,-13 -3,-11 -2,-23 1,-35 7,-27 18,-32 43,-38 32,-8 83,-11 114,-5 14,2 23,3 35,6 12,3 24,5 29,14l5 1c5,-4 3,-2 11,-4 6,-2 8,-2 14,-4 8,-2 18,-4 28,-7l78 -20c10,-3 17,-5 28,-8 18,-4 34,-9 52,-14l605 -167c9,-3 16,-6 26,-8 -2,-2 3,-1 -4,-3l-279 1c-687,0 -1374,0 -2062,0l0 566c47,0 371,-67 423,-77l101 -22c10,-2 25,-7 36,-7l0 -2c-62,0 -122,2 -147,-52 -16,-35 -16,-124 13,-166 27,-40 197,-46 222,16 12,28 12,58 12,90l-171 0c0,33 -1,51 29,57 12,2 31,1 40,-1 13,-4 17,-12 17,-28l85 0c0,36 -8,46 -22,67 11,0 53,-11 65,-13l0 21c0,6 -1,-1 0,4 1,0 1,1 1,1 0,1 1,1 1,2z"/>
   <path class="fil0" d="M3838 945l-87 35c-71,28 -154,62 -224,86l-135 51c-32,10 -62,20 -92,31 -8,3 -13,5 -22,8 -9,3 -15,5 -23,8l-46 16c-17,5 -31,10 -47,16l-326 106c-8,3 -15,5 -23,7 -9,3 -15,6 -24,9 -17,5 -32,9 -48,14 -7,3 -15,5 -24,7l-345 104c-11,3 -7,-1 -12,6l1320 0 30 -53c13,-27 30,-54 41,-82 12,-31 24,-58 35,-91 29,-86 52,-181 52,-278z"/>
   <path class="fil1" d="M2297 564l2 63c2,38 17,98 29,134 15,45 26,61 45,97 8,17 31,48 43,63 15,20 54,62 70,75 19,16 39,34 60,48 32,22 76,48 116,62 10,3 18,6 27,9 40,14 76,20 118,25l34 2c7,1 29,7 29,-5l0 -162c0,-9 -8,-6 -17,-6 -82,1 -171,-35 -232,-86l-27 -23c-10,-8 -14,-16 -23,-25l-42 -55c-33,-51 -57,-130 -57,-190 0,-73 5,-122 39,-189 19,-38 23,-41 46,-72 20,-28 57,-62 84,-80 68,-48 138,-72 229,-72l0 -173c-46,0 -89,6 -127,14 -59,11 -126,37 -176,71 -33,22 -51,34 -80,62 -5,4 -5,4 -10,7l-27 28c-17,22 -46,50 -62,78 -32,56 -62,106 -75,173 -8,39 -16,80 -16,127z"/>
   <path class="fil1" d="M1491 227l0 822c0,17 3,34 11,47 10,15 3,6 18,21 20,20 39,27 71,27l590 0c4,-18 4,-157 0,-175l-515 0 0 -748 -168 0c-5,0 -7,1 -7,6z"/>
   <path class="fil1" d="M689 973c-20,-6 -490,5 -516,-3l0 -748 -171 0 -2 805 0 2c0,37 2,57 19,78 40,51 96,37 165,37 168,0 337,0 505,0l0 -171z"/>
   <path class="fil0" d="M957 171c8,4 5,20 5,28l0 454c0,162 -2,325 0,487l168 0c3,-176 0,-356 0,-532l0 -398c0,-32 4,-107 -2,-134 8,-16 -18,-54 -47,-67 -26,-12 -75,-7 -111,-7 -77,0 -155,0 -233,0l0 171c33,0 203,5 220,-2z"/>
   <path class="fil1" d="M1491 9l0 160c0,5 2,6 7,6l678 0c8,0 6,-3 6,-8 0,0 0,-3 1,-5 1,-30 -1,-105 0,-142 0,-10 2,-18 -7,-18l-678 0c-5,0 -7,2 -7,7z"/>
   <path class="fil1" d="M0 9l0 166 689 0 0 -173 -683 0c-4,0 -6,2 -6,6l0 1 0 0z"/>
   <path class="fil1" d="M1714 694c0,5 -5,9 4,9l458 0c5,0 7,-2 7,-7l0 -160c0,-5 -2,-6 -7,-6l-462 0 0 164z"/>
   <polygon class="fil1" points="223,703 689,703 689,530 223,530 "/>
   <path class="fil1" d="M2598 1801c0,-20 -4,-59 10,-69 11,-7 80,-26 80,28 0,71 7,86 -51,86 -31,0 -39,-15 -39,-45zm-5 -99l0 -37 -82 0c-10,0 -6,16 -6,34l0 303c19,5 52,2 73,2 11,0 10,-2 20,-2l0 -132c1,2 1,1 3,4 6,11 6,18 22,25 29,14 117,12 136,-17 17,-25 40,-174 -19,-206 -31,-16 -101,-20 -127,4 -4,4 -6,7 -9,11 -4,6 -5,8 -11,11z"/>
   <path class="fil1" d="M1973 1788c0,-12 2,-32 5,-42 7,-24 24,-21 49,-21 43,0 32,45 35,65 3,16 1,48 -17,55 -15,5 -58,9 -66,-13 -3,-9 -6,-32 -6,-44zm89 -89c-7,-2 -3,0 -9,-10 -19,-30 -76,-28 -106,-22 -70,15 -62,88 -62,147 0,32 2,52 22,71 22,21 128,42 153,-10l6 -9 -2 39 80 0c5,0 6,-2 6,-7l0 -328c0,-5 -1,-7 -6,-7l-82 0 0 136z"/>
   <path class="fil1" d="M2336 1849c-13,0 -31,0 -40,-10 -14,-16 -13,-89 0,-105 12,-15 59,-15 72,0 14,17 11,80 3,97 -6,13 -16,18 -35,18zm-140 -72c0,42 0,84 28,108 33,27 165,29 206,7 41,-22 42,-142 24,-183 -20,-48 -96,-41 -117,-45 -14,-3 -50,1 -65,4 -62,10 -76,45 -76,109z"/>
   <path class="fil1" d="M2905 1788c0,-25 1,-53 20,-61 14,-6 46,-5 59,3 16,12 11,52 11,78 0,39 -22,41 -49,41 -16,0 -29,-5 -34,-16 -5,-10 -7,-36 -7,-45zm-89 -24c0,93 -2,143 130,143 31,0 91,0 115,-23 18,-18 50,-171 -14,-203 -14,-7 -30,-11 -46,-14l-53 -4 -54 4c-53,6 -78,38 -78,97z"/>
   <path class="fil1" d="M1668 1709c-4,-8 -1,-29 -2,-42l-82 1c-2,1 -2,-3 -2,10l0 201c0,30 -5,26 26,26 18,0 36,0 54,0 15,0 11,-4 11,-43l0 -106c3,-30 56,-38 69,-22 10,10 9,26 9,45 0,36 0,71 0,106 -1,24 -5,20 34,20 18,0 36,0 54,0 0,-38 0,-77 0,-115 0,-49 7,-82 -21,-106 -24,-21 -74,-25 -103,-16 -34,9 -39,33 -47,41z"/>
   <path class="fil1" d="M3404 1736c0,93 74,67 130,77 24,4 45,-3 45,25 0,23 -36,17 -63,17 -17,0 -24,-8 -24,-26l-88 0c0,29 2,58 36,68 48,15 183,20 214,-25 16,-24 18,-79 -8,-97 -36,-25 -94,-16 -133,-22 -17,-3 -12,-3 -23,-10l2 -22c16,-7 50,-8 64,-3 9,2 11,11 14,18 23,0 65,3 85,-2 0,-51 -29,-61 -79,-69 -7,-1 -15,0 -23,0 -12,0 -14,-2 -24,-2 -15,-1 -73,7 -88,11 -7,2 -11,5 -16,8 -5,4 -8,8 -12,14 -5,9 -9,27 -9,40z"/>
   <polygon class="fil0" points="1176,173 1433,173 1433,2 1176,2 "/>
   <path class="fil1" d="M1409 1855c-45,0 -52,2 -52,-28 0,-20 29,-19 46,-19 18,0 39,3 39,21 0,20 -13,26 -33,26zm35 35l-2 13 86 0 -1 -160c2,-14 0,-24 -4,-35 -3,-9 -8,-18 -14,-25l-5 -1c-10,1 -47,12 -60,15 -10,3 -19,5 -30,8 -7,1 -26,7 -31,7l0 3c5,0 40,-8 53,8 9,11 6,41 6,61 -13,-4 -3,-7 -19,-16 -23,-13 -72,-10 -93,-5 -44,9 -66,30 -64,77 2,45 28,60 72,66 23,4 104,3 104,-36l2 20z"/>
   <polygon class="fil1" points="3127,1903 3211,1903 3211,1566 3127,1565 "/>
   <polygon class="fil1" points="3272,1903 3356,1903 3356,1668 3272,1668 "/>
   <path class="fil1" d="M2241 1273c0,11 19,7 39,7 -7,11 -14,21 -22,32 -21,31 -21,19 -21,48 0,5 1,6 6,6l74 0c7,0 5,-1 8,-1 4,0 2,1 9,1 94,0 80,8 80,-28 -14,-3 -29,-2 -45,-2 3,-12 43,-53 43,-69 0,-23 6,-17 -76,-17 -9,0 -6,6 -6,23 0,11 18,7 39,7l-41 61c-8,-2 -4,-3 -10,-4l-38 -1c2,-7 1,-3 5,-8 7,-10 38,-50 38,-61 0,-23 7,-17 -82,-17l0 23z"/>
   <path class="fil1" d="M674 1258c-1,-6 -1,-3 -4,-8l-24 0c-4,17 -4,99 0,116 38,0 30,6 30,-51 0,-27 -2,-37 20,-37 13,27 -6,88 11,88 30,0 23,7 23,-47 0,-7 0,-19 1,-26 2,-16 11,-15 19,-15 13,24 -5,88 11,88 32,0 24,14 24,-88 0,-25 -38,-46 -59,-15 -20,-14 -20,-26 -52,-5z"/>
   <polygon class="fil1" points="1152,1771 1146,1775 1145,1907 1221,1907 1221,1753 "/>
   <path class="fil1" d="M506 1258c2,8 4,15 6,22 2,6 4,17 7,22l-28 0c3,-7 4,-14 6,-22 4,-10 4,-16 9,-22zm-65 108l30 0c4,-7 9,-25 11,-34l47 0c1,10 8,27 11,34 42,0 37,12 6,-81l-25 -76 -33 0c-6,26 -16,51 -24,77 -3,7 -4,12 -7,19 -2,7 -3,13 -6,20 -4,13 -10,25 -10,41z"/>
   <path class="fil1" d="M966 1816l0 91 99 0 0 -115 -73 17c-8,2 -20,5 -26,7z"/>
   <path class="fil1" d="M52 1278l-11 0 0 -39c16,0 39,-3 39,19 0,16 -13,20 -28,20zm-41 88c38,0 30,11 30,-58 21,0 46,3 59,-13 25,-33 11,-86 -27,-86l-62 0 0 157z"/>
   <path class="fil1" d="M1033 1306c0,-16 5,-19 11,-28 10,0 14,-1 19,7 6,8 12,53 -15,53 -11,0 -15,-20 -15,-32zm35 -50c-10,-5 -12,-8 -26,-8 -51,0 -54,121 4,121 8,0 19,-8 24,-11 0,7 0,4 2,8 18,0 26,3 26,-6l0 -151 -30 0 0 47z"/>
   <path class="fil1" d="M1720 1360c0,9 9,6 31,6l0 -60c0,-11 22,-7 54,-7 0,-38 10,-30 -54,-30l0 -30 56 0c9,0 6,-7 6,-24 0,-5 -1,-6 -6,-6l-87 0 0 151z"/>
   <path class="fil1" d="M839 1338c-21,0 -13,-16 15,-17 -1,12 -4,17 -15,17zm-39 -52c8,2 16,5 26,5l6 -13 17 0c3,6 4,6 5,15 -24,2 -57,10 -57,39 0,22 10,37 33,37 16,0 17,-8 28,-11 1,7 0,4 2,8 42,0 24,2 24,-30 0,-54 9,-88 -45,-88 -11,0 -23,5 -28,11 -5,5 -11,19 -11,27z"/>
   <path class="fil1" d="M2196 1336c-34,8 -28,-14 4,-15 0,6 -2,11 -4,15zm-50 -50c8,2 16,5 26,5l7 -13 17 0c2,4 3,8 4,13 -27,13 -56,4 -56,45 0,21 14,33 34,33 12,0 17,-9 26,-11 1,7 0,4 3,8 28,0 29,3 26,-10 -12,-44 22,-108 -48,-108 -24,0 -39,19 -39,38z"/>
   <path class="fil1" d="M1863 1338c-11,0 -11,0 -11,-10 6,-3 17,-7 26,-7 0,12 -4,17 -15,17zm-39 -52c9,3 17,5 28,5 1,-8 2,-8 4,-13 19,0 22,-4 22,15 -8,1 -31,7 -37,10 -31,15 -23,66 13,66 16,0 17,-8 28,-11 1,7 0,4 3,8 26,0 30,3 26,-11 -13,-50 22,-107 -48,-107 -23,0 -37,18 -39,38z"/>
   <path class="fil1" d="M2073 1258l-3 -8 -26 0c-4,17 -4,99 0,116l29 0c3,-14 2,-32 2,-49 0,-27 -4,-39 21,-39 6,10 3,6 5,19l2 50c0,22 -4,19 24,19 5,0 6,-1 6,-6l0 -71c0,-31 -22,-56 -60,-31z"/>
   <path class="fil1" d="M929 1258l-2 -8 -26 0c-4,17 -4,99 0,116l28 0c5,-21 1,-64 3,-75 2,-10 8,-13 17,-13 25,0 -2,88 17,88 32,0 24,13 24,-82 0,-23 -21,-53 -61,-26z"/>
   <path class="fil1" d="M2470 1338c-35,0 -25,-60 -6,-60 31,0 22,43 19,50 -2,3 -8,10 -13,10zm-54 -30c0,80 102,82 102,-2 0,-77 -102,-79 -102,2z"/>
   <path class="fil1" d="M1413 1338c-26,0 -26,-60 0,-60 27,0 27,60 0,60zm-49 -39c0,19 0,39 13,54 25,28 86,21 86,-47 0,-59 -60,-74 -85,-42 -7,8 -14,22 -14,35z"/>
   <path class="fil1" d="M1139 1308c0,-40 39,-43 39,0 0,37 -26,36 -34,21 -4,-6 -5,-12 -5,-21zm-30 0c0,83 99,76 99,7l0 -18c0,-23 -21,-49 -52,-49 -29,0 -47,30 -47,60z"/>
   <path class="fil1" d="M220 1308c0,-40 39,-43 39,0 0,42 -39,40 -39,0zm-30 -2c0,17 4,34 14,45 32,37 86,12 86,-39 0,-18 -1,-33 -15,-48 -39,-39 -85,-4 -85,42z"/>
   <path class="fil1" d="M1472 1282c0,17 3,26 19,33 13,6 30,9 37,13l0 8 -22 2c-2,-3 -3,-3 -4,-6 -2,-3 -3,-5 -4,-9 -20,0 -32,1 -28,13 0,2 2,5 3,7 21,42 85,29 85,-11 0,-42 -30,-33 -53,-45 -5,-3 -4,-1 -5,-7 6,-3 12,-2 21,-2 6,9 5,13 9,13 33,0 27,-10 20,-24 -16,-31 -78,-25 -78,15z"/>
   <path class="fil1" d="M1606 1278l4 0 4 0c9,0 13,10 13,19l-30 0c3,-10 4,-12 9,-19zm-39 24c0,97 87,72 88,28 -32,-8 -26,-6 -34,8 -16,0 -20,0 -24,-19l61 0c0,-105 -91,-81 -91,-17z"/>
   <path class="fil1" d="M1312 1336l-13 0c-4,-5 -5,-6 -6,-13 -3,-20 -2,-11 -31,-11 0,29 7,57 43,57 36,0 44,-35 44,-65l0 -89c0,-9 -8,-6 -26,-6 -10,0 -7,17 -7,28 0,25 3,84 -4,99z"/>
   <path class="fil1" d="M305 1237l0 13 -13 0c0,33 -3,30 13,30l0 80c0,9 7,6 24,6 4,0 6,-1 6,-6l0 -80c20,0 17,3 17,-24 0,-8 -5,-6 -17,-6 0,-39 24,13 24,-39 -18,-9 -54,-9 -54,26z"/>
   <path class="fil1" d="M2267 1619c1,8 3,10 6,16 10,20 3,17 38,7l86 -25 -26 -52 -89 47c-6,4 -8,6 -15,7z"/>
   <path class="fil1" d="M3272 1622c3,3 0,1 6,2 3,0 9,0 11,0 14,0 59,2 66,-2l1 -57 -84 0 0 57z"/>
   <path class="fil1" d="M605 1256l0 -6c-20,0 -28,-3 -28,6l0 104c0,9 9,6 30,6 0,-8 -3,-84 11,-82l17 3c4,-15 17,-39 -10,-39 -9,0 -15,5 -20,8z"/>
   <path class="fil1" d="M1954 1258l-2 -8c-20,0 -29,-3 -29,6l0 104c0,9 10,6 31,6 0,-5 -4,-84 11,-82l17 3c3,-15 16,-39 -11,-39 -8,0 -15,3 -17,10z"/>
   <path class="fil1" d="M153 1256c-2,-8 0,-6 -21,-6 -5,0 -7,1 -7,6l0 104c0,9 7,6 24,6 9,0 7,-8 7,-17 -1,-21 -2,-49 6,-65 14,0 11,2 20,2l8 -30c-21,-14 -22,-10 -37,0z"/>
   <path class="fil2" d="M1065 1792c13,-3 26,-6 39,-9 6,-1 13,-2 19,-4 7,-2 13,-4 23,-4l6 -4 -7 0c0,-21 2,-30 -9,-41 -15,-16 -58,-9 -70,15 -5,10 -5,38 -1,47z"/>
   <path class="fil3" d="M957 171c5,16 3,240 3,277l0 691c2,8 12,5 30,5l138 0c6,-2 5,-5 5,-13l0 -1047c-2,-12 1,-4 -5,-8 6,27 2,102 2,134l0 398c0,176 3,356 0,532l-168 0c-2,-162 0,-325 0,-487l0 -454c0,-8 3,-24 -5,-28z"/>
   <path class="fil1" d="M712 1875l-1 30c0,0 1,0 1,1 1,2 83,1 85,1l0 -52c-13,1 -28,6 -42,9 -6,1 -14,4 -21,5 -9,2 -14,3 -22,6z"/>
   <path class="fil4" d="M689 973l0 -4 -514 0 0 -748c-25,0 -162,-4 -173,1l171 0 0 748c26,8 496,-3 516,3z"/>
   <path class="fil1" d="M1993 1256l0 104c0,9 6,6 23,6 5,0 7,-1 7,-6l0 -104c0,-9 -7,-6 -24,-6 -5,0 -6,1 -6,6z"/>
   <path class="fil5" d="M495 1753l82 0c9,0 6,-8 5,-13 -6,-24 -21,-25 -50,-25 -28,0 -37,11 -37,38z"/>
   <path class="fil6" d="M3127 1565l84 1 0 337 -84 0 0 -338zm-2 340l89 0 0 -342 -89 0 0 342z"/>
   <path class="fil7" d="M3272 1668l84 0 0 235 -84 0 0 -235zm-2 237l88 0 0 -240 -88 0 0 240z"/>
   <path class="fil1" d="M361 1332c0,40 -5,34 24,34 7,0 6,-5 6,-12 0,-8 0,-15 0,-22 -9,-2 -20,-4 -30,0z"/>
   <path class="fil1" d="M1604 1241l13 0c8,-12 22,-26 23,-37l-30 0c-5,9 -19,37 -6,37z"/>
   <path class="fil8" d="M1295 1738l73 0c1,-7 3,-14 7,-19l4 -3c0,0 1,0 1,0 0,-1 1,-1 1,-1 -11,0 -32,7 -44,9 -9,3 -14,4 -23,6 -18,5 -15,2 -19,8z"/>
   <path class="fil1" d="M1993 1232c0,9 6,7 23,7 10,0 7,-9 7,-30l-30 0 0 23z"/>
   <path class="fil9" d="M210 1632l168 0 1 -71c-1,-12 0,-3 -3,-7l0 76c-8,0 -158,-3 -166,2z"/>
   <path class="fil10" d="M1444 1890c-4,5 -2,4 -2,15l88 0 0 -143c0,-27 1,-15 -3,-19l1 160 -86 0 2 -13z"/>
   <path class="fil11" d="M210 1778l155 -1c1,-6 3,-74 -2,-77l0 75 -145 0c-12,1 -5,0 -8,3z"/>
   <path class="fil7" d="M3272 1622l0 -57 84 0 -1 57c3,-3 4,1 4,-13l-1 -46 -88 0 0 52c1,10 0,3 2,7z"/>
   <path class="fil12" d="M1668 1709l0 -44 -64 0c-28,0 -16,-1 -20,3l82 -1c1,13 -2,34 2,42z"/>
  </g>
 </g>
</svg>
